<?xml version="1.0" encoding="utf-8"?>
<svg xmlns="http://www.w3.org/2000/svg" shape-rendering="geometricPrecision" text-rendering="geometricPrecision" image-rendering="optimizeQuality" fill-rule="evenodd" clip-rule="evenodd" viewBox="0 0 512 262.86">
  <path fill-rule="nonzero" d="M 316.78 16.55 L 110.87999999999997 16.55 C 80.37999999999997 16.55 52.65999999999997 29.03 32.569999999999965 49.120000000000005 C 12.47 69.21 0 96.93 0 127.44 C 0 157.94 12.47 185.66 32.57 205.75 C 52.66 225.85 80.38 238.32 110.88 238.32 L 304.13 238.32 C 325.67 253.75 352.03 262.86 380.39 262.86 L 380.57 262.86 C 416.71 262.86 449.59 248.07000000000002 473.4 224.26000000000002 C 497.2 200.45000000000002 512 167.59000000000003 512 131.43 C 512 95.28 497.22 62.400000000000006 473.37 38.63000000000001 C 449.53 14.8 416.67 0 380.57 0 L 380.39 0 C 357.37 0 335.66999999999996 6.02 316.78 16.55 Z" style="fill: rgb(255, 255, 255);"/>
  <path fill-rule="nonzero" d="M 380.39 15.530000000000015 L 380.57 15.530000000000015 C 444.32 15.530000000000015 496.48 67.68 496.48 131.43 C 496.48 195.18 444.25 247.34 380.57000000000005 247.34 L 380.39000000000004 247.34 C 316.71000000000004 247.34 264.48 195.18 264.48 131.43 C 264.48 67.68 316.64 15.530000000000001 380.39 15.530000000000001 L 380.39 15.530000000000015 Z" style="fill: rgb(255, 255, 255);"/>
  <path fill-rule="nonzero" d="M 385.47999999999996 69.48000000000002 C 369.78999999999996 77.15000000000002 358.49999999999994 92.74000000000002 357.18999999999994 111.41000000000003 C 355.22999999999996 139.29000000000002 376.23999999999995 163.47000000000003 404.10999999999996 165.43000000000004 C 417.34 166.36000000000004 429.74999999999994 162.11000000000004 439.3299999999999 154.41000000000003 C 444.0799999999999 150.59000000000003 448.98999999999995 153.96000000000004 446.9199999999999 158.77000000000004 C 435.5899999999999 185.19000000000005 408.4699999999999 202.81000000000003 378.1799999999999 200.68000000000004 C 339.8899999999999 197.99000000000004 311.0399999999999 164.77000000000004 313.7299999999999 126.49000000000004 C 316.3 89.8 347.05 61.67 383.44 62 C 390.15 62.06 391.57 66.5 385.48 69.48 L 385.47999999999996 69.48000000000002 Z" style="fill: rgb(126, 126, 126);"/>
  <path fill-rule="nonzero" d="M 424.27 130.49 L 424.79999999999995 130.61 C 425.81999999999994 126.26000000000002 428.34999999999997 122.83000000000001 432.37999999999994 120.35000000000001 C 436.3999999999999 117.86000000000001 440.5799999999999 117.13000000000001 444.93999999999994 118.16000000000001 L 445.06999999999994 117.63000000000001 C 440.7199999999999 116.60000000000001 437.28999999999996 114.08000000000001 434.80999999999995 110.04 C 432.31999999999994 106.01 431.5899999999999 101.82000000000001 432.60999999999996 97.48 L 432.08 97.36 C 431.06 101.71 428.53 105.13 424.5 107.62 C 420.48 110.11 416.29 110.84 411.94 109.81 L 411.81 110.34 C 416.17 111.37 419.59 113.89 422.07 117.92 C 424.56 121.94 425.29 126.14 424.27 130.49 Z" style="fill: rgb(255, 228, 51);"/>
  <path fill-rule="nonzero" d="M 387.4 113.72 L 387.83 113.81 C 388.65 110.36 390.65999999999997 107.62 393.87 105.65 C 397.07 103.67 400.4 103.08000000000001 403.88 103.9 L 403.98 103.47 C 400.51 102.65 397.78000000000003 100.64 395.81 97.44 C 393.83 94.22 393.24 90.89 394.06 87.42999999999999 L 393.63 87.33 C 392.81 90.8 390.8 93.53 387.6 95.50999999999999 C 384.39000000000004 97.49 381.05 98.07 377.58000000000004 97.24999999999999 L 377.48 97.67999999999999 C 380.95000000000005 98.49999999999999 383.68 100.52 385.66 103.72 C 387.65000000000003 106.91 388.22 110.24 387.40000000000003 113.72 L 387.4 113.72 Z" style="fill: rgb(255, 228, 51);"/>
  <path d="M 13.097 30.162 C 16.057 32.632 18.907 35.232 21.627 37.962 C 44.847 61.112 59.257 93.132 59.257 128.352 C 59.257 163.572 44.837 195.582 21.657 218.772 C 18.939 221.486 16.103 224.079 13.157 226.542 L 202.617 226.542 C 229.447 226.542 253.857 215.632 271.637 198.042 L 271.957 197.692 C 289.747 179.902 300.807 155.342 300.807 128.352 C 300.807 101.362 289.747 76.802 271.957 59.002 C 254.187 41.202 229.627 30.162 202.617 30.162 L 13.097 30.162 Z" style="stroke-width: 1; fill: rgb(126, 126, 126); transform-box: fill-box; transform-origin: 50% 50%;" transform="matrix(-1, 0, 0, -1, 0.00001, -0.00001)"/>
</svg>