<?xml version="1.0" encoding="utf-8"?>
<svg xmlns="http://www.w3.org/2000/svg" shape-rendering="geometricPrecision" text-rendering="geometricPrecision" image-rendering="optimizeQuality" fill-rule="evenodd" clip-rule="evenodd" viewBox="0 0 512 256.04">
  <path d="M 128.02 0 L 128.20000000000002 0 C 150.23000000000002 0 171.03000000000003 5.66 189.20000000000002 15.6 L 399.58000000000004 15.6 C 430.47 15.6 458.58000000000004 28.25 478.96000000000004 48.64 C 499.35 68.99 512 97.1 512 128.02 C 512 158.94 499.34 187.05 478.98 207.42000000000002 L 478.56 207.8 C 458.22 227.95000000000002 430.27 240.44 399.58 240.44 L 189.24 240.44 C 171.07 250.37 150.26000000000002 256.04 128.20000000000002 256.04 L 128.02 256.04 C 92.82000000000001 256.04 60.80000000000001 241.63000000000002 37.60000000000001 218.44000000000003 C 14.41 195.25 0 163.24 0 128.02 C 0 92.80000000000001 14.4 60.780000000000015 37.59 37.59 L 38.5 36.760000000000005 C 61.65 14.05 93.29 0 128.02 0 Z" style=""/>
  <path d="M 128.01999999999998 15.120000000000005 L 128.2 15.120000000000005 C 190.29 15.120000000000005 241.08999999999997 65.93 241.08999999999997 128.02 C 241.08999999999997 190.12 190.22999999999996 240.92000000000002 128.2 240.92000000000002 L 128.01999999999998 240.92000000000002 C 65.98999999999998 240.92000000000002 15.119999999999976 190.12 15.119999999999976 128.02 C 15.119999999999976 65.93 65.92999999999998 15.120000000000005 128.01999999999998 15.120000000000005 Z" style="fill: rgb(255, 255, 255);"/>
  <path d="M 210.06 29.830000000000005 C 213.02 32.300000000000004 215.87 34.900000000000006 218.59 37.63 C 241.81 60.78 256.22 92.80000000000001 256.22 128.02 C 256.22 163.24 241.80000000000004 195.25 218.62000000000003 218.44 C 215.9026523190306 221.15409799736233 213.06654554159874 223.74663325307804 210.12000000000003 226.21 L 399.58000000000004 226.21 C 426.41 226.21 450.82000000000005 215.3 468.6 197.71 L 468.92 197.36 C 486.71000000000004 179.57000000000002 497.77000000000004 155.01000000000002 497.77000000000004 128.02 C 497.77000000000004 101.03000000000002 486.71000000000004 76.47000000000001 468.92 58.670000000000016 C 451.15000000000003 40.87000000000002 426.59000000000003 29.830000000000016 399.58000000000004 29.830000000000016 L 210.06 29.830000000000016 L 210.06 29.830000000000005 Z" style="fill: rgb(167, 229, 255);"/>
  <path d="M 175.89 71.7 C 177.21647532231364 70.37454630865079 179.01480287206428 69.63000000000001 180.89 69.63000000000001 C 184.79 69.63000000000001 187.98999999999998 72.82000000000001 187.98999999999998 76.72000000000001 C 187.98999999999998 78.53000000000002 187.29999999999998 80.34000000000002 185.92 81.72000000000001 L 176.6 91.03000000000002 C 175.28343522269827 92.26647433316059 173.54615572276927 92.95638136708422 171.73999999999998 92.96000000000002 C 167.82999999999998 92.96000000000002 164.64999999999998 89.78000000000002 164.64999999999998 85.87000000000002 C 164.64999999999998 84.07000000000002 165.34999999999997 82.26000000000002 166.73 80.87000000000002 L 175.89 71.70000000000002 L 175.89 71.7 Z" style="fill: rgb(244, 236, 59);"/>
  <path d="M 201.72 121.98000000000002 C 203.65 121.98000000000002 205.45 122.79000000000002 206.72 124.06000000000002 C 209.48 126.81000000000002 209.47 131.33 206.72 134.08 L 206.57 134.22 C 205.25870786145853 135.45965825198215 203.52449310239038 136.15334434574214 201.72 136.16 L 188.77 136.16 C 186.81 136.16 185.03 135.35999999999999 183.76000000000002 134.07999999999998 C 181.00000000000003 131.32999999999998 181.00000000000003 126.80999999999999 183.76000000000002 124.05999999999999 C 185.08567690313666 122.72611694705775 186.88940015581883 121.97726568067704 188.77 121.97999999999999 L 201.72 121.97999999999999 L 201.72 121.98000000000002 Z" style="fill: rgb(244, 236, 59);"/>
  <path d="M 184.43 175.8 C 185.75965022053342 177.12770102951595 186.50471523436684 178.93097432180744 186.5 180.81 C 186.5 184.7 183.32 187.9 179.42 187.9 C 177.60999999999999 187.9 175.79 187.21 174.41 185.83 L 165.25 176.67000000000002 C 163.92163660549448 175.33735350560568 163.1770405928051 173.5316182473586 163.18 171.65 C 163.18 167.75 166.36 164.56 170.26000000000002 164.56 C 172.06000000000003 164.56 173.87000000000003 165.26 175.26000000000002 166.64000000000001 L 184.43 175.8 Z" style="fill: rgb(244, 236, 59);"/>
  <path d="M 134.15 201.63 C 134.15 203.57 133.35 205.35999999999999 132.07 206.63 C 129.32999999999998 209.39 124.8 209.38 122.05 206.63 L 121.92 206.48 C 120.67467779433252 205.17233722614912 119.98005135071325 203.4357711160075 119.98 201.63 L 119.98 188.68 C 119.98 186.72 120.78 184.95000000000002 122.05 183.67000000000002 C 124.81 180.92000000000002 129.32 180.92000000000002 132.07999999999998 183.67000000000002 C 133.40545023041466 185.00050290489798 134.14976241968512 186.8019541441158 134.14999999999998 188.68 L 134.14999999999998 201.63 L 134.15 201.63 Z" style="fill: rgb(244, 236, 59);"/>
  <path d="M 80.33000000000001 184.34 C 79.00512139908845 185.6677524995356 77.20569257421631 186.41271554897415 75.33000000000001 186.41 C 71.42000000000002 186.41 68.24000000000001 183.25 68.24000000000001 179.32999999999998 C 68.24000000000001 177.51999999999998 68.92000000000002 175.70999999999998 70.31 174.32 L 79.62 165.03 C 80.92942677551011 163.78113951032427 82.67051496854027 163.08613683820343 84.48 163.09 C 88.39569887630033 163.09 91.57000000000001 166.26430112369968 91.57000000000001 170.18 C 91.57000000000001 171.97 90.88000000000001 173.78 89.49000000000001 175.17000000000002 L 80.33000000000001 184.34 Z" style="fill: rgb(244, 236, 59);"/>
  <path d="M 54.510000000000005 134.06 C 52.56 134.06 50.78000000000001 133.26 49.510000000000005 131.98 C 46.74 129.23999999999998 46.75000000000001 124.71 49.50000000000001 121.96999999999998 L 49.650000000000006 121.82999999999998 C 50.96056171328336 120.58290903734003 52.70091054949211 119.88820179718039 54.510000000000005 119.88999999999999 L 67.45 119.88999999999999 C 71.36753210008824 119.8855712802514 74.54442784441343 123.06246789892229 74.54 126.97999999999999 C 74.54 128.92999999999998 73.74000000000001 130.70999999999998 72.47000000000001 131.98999999999998 C 71.13710543961515 133.31799069166382 69.33153151320734 134.06252013037042 67.45000000000002 134.05999999999997 L 54.51 134.05999999999997 L 54.510000000000005 134.06 Z" style="fill: rgb(244, 236, 59);"/>
  <path d="M 71.79 80.25 C 70.46584475251309 78.91863480761086 69.7217635428316 77.11774260346543 69.72000000000001 75.24 C 69.72000000000001 71.33999999999999 72.90000000000002 68.14999999999999 76.81000000000002 68.14999999999999 C 78.62000000000002 68.14999999999999 80.43000000000002 68.83999999999999 81.81000000000002 70.21999999999998 L 90.97000000000001 79.37999999999998 C 92.30237969731357 80.70668499931284 93.05095893348614 82.50975325404836 93.05000000000001 84.38999999999999 C 93.05000000000001 86.18999999999998 92.35000000000001 88.00999999999999 90.97000000000001 89.39999999999999 C 89.64381755419025 90.73313120802959 87.84042423104323 91.48184626702373 85.96000000000001 91.47999999999999 C 84.16000000000001 91.47999999999999 82.35000000000001 90.77999999999999 80.96000000000001 89.41 L 71.79 80.25 Z" style="fill: rgb(244, 236, 59);"/>
  <path d="M 128.12 85.59 C 139.84 85.59 150.44 90.34 158.12 98.02000000000001 C 165.79 105.70000000000002 170.55 116.31 170.55 128.02 C 170.55 139.74 165.8 150.34 158.12 158.02 C 150.44 165.70000000000002 139.84 170.45000000000002 128.12 170.45000000000002 C 116.4 170.45000000000002 105.80000000000001 165.70000000000002 98.11 158.02 C 90.44 150.34 85.68 139.74 85.68 128.02 C 85.68 116.30000000000001 90.44000000000001 105.70000000000002 98.11000000000001 98.02000000000001 C 105.80000000000001 90.35000000000001 116.41000000000001 85.59 128.12 85.59 Z" style="fill: rgb(244, 236, 59);"/>
  <path d="M 122.07000000000001 54.42 C 122.07000000000001 52.47 122.87 50.690000000000005 124.15 49.42 C 126.89 46.65 131.42000000000002 46.660000000000004 134.17000000000002 49.410000000000004 L 134.31 49.57 C 135.55453124671675 50.87817044100851 136.24902577215963 52.61440675187824 136.25 54.42 L 136.25 67.37 C 136.25 69.32000000000001 135.45 71.10000000000001 134.17 72.38000000000001 C 131.42 75.13000000000001 126.89999999999999 75.13000000000001 124.14999999999999 72.38000000000001 C 122.81939591833137 71.05212548875747 122.07113705042745 69.24982888765898 122.07 67.37 L 122.07 54.42 L 122.07000000000001 54.42 Z" style="fill: rgb(244, 236, 59);"/>
</svg>